<svg width="100" height="45" viewBox="0 0 100 45" fill="none" xmlns="http://www.w3.org/2000/svg">
<path d="M39.7891 37.3016C40.3302 37.2836 40.6729 37.1754 40.8352 37.0132C40.9975 36.8329 41.0877 36.4723 41.0877 35.9134V31.0817H39.8071V30.5769H41.0877C41.0877 29.7836 41.1959 29.1165 41.4124 28.5577C41.8272 27.512 42.5848 26.9891 43.685 26.9891C44.1359 26.9891 44.5147 27.0793 44.8754 27.2596C45.2362 27.4399 45.3985 27.6742 45.3985 27.9627C45.3985 28.2512 45.3444 28.2692 45.2181 28.4134C45.0919 28.5396 44.9476 28.6117 44.7853 28.6117C44.6229 28.6117 44.5147 28.5757 44.4065 28.4855C44.2983 28.3954 44.172 28.2331 44.0277 28.0168L43.9015 27.8185C43.8293 27.7103 43.7391 27.6202 43.6489 27.548C43.5588 27.4759 43.4145 27.4399 43.2521 27.4399C42.8734 27.4399 42.6028 27.6202 42.4765 27.9988C42.4044 28.1971 42.3683 28.4675 42.3683 28.792V30.5769H44.2622V31.0817H42.3864V35.9134C42.3864 36.4723 42.4585 36.8509 42.6208 37.0132C42.7832 37.1754 43.18 37.2656 43.8293 37.3197V37.536H39.8071V37.3197L39.7891 37.3016ZM46.12 28.5036C46.2643 28.3413 46.4627 28.2692 46.6791 28.2692C46.8956 28.2692 47.0759 28.3413 47.2383 28.5036C47.4006 28.6478 47.4728 28.8461 47.4728 29.0625C47.4728 29.2788 47.4006 29.4591 47.2383 29.6214C47.094 29.7656 46.8956 29.8557 46.6791 29.8557C46.4627 29.8557 46.2643 29.7836 46.12 29.6214C45.9757 29.4591 45.8855 29.2788 45.8855 29.0625C45.8855 28.8461 45.9577 28.6658 46.12 28.5036ZM44.9296 37.3016C45.4707 37.2476 45.8134 37.1574 45.9396 37.0312C46.0839 36.887 46.1561 36.5264 46.1561 35.9495V32.3617C46.1561 32.0372 46.138 31.8028 46.0839 31.6766C46.0118 31.4783 45.8494 31.3702 45.615 31.3702H45.4526L45.0017 31.5144V31.28L45.3264 31.1718C46.2102 30.8834 46.8234 30.667 47.1661 30.5228C47.3104 30.4687 47.4006 30.4327 47.4367 30.4327V30.5408V35.9495C47.4367 36.5264 47.5088 36.887 47.6351 37.0312C47.7794 37.1754 48.086 37.2656 48.573 37.3016V37.518H44.9115V37.3016H44.9296ZM53.5692 30.631C53.7676 30.7391 53.966 30.8834 54.1464 31.0637V28.6658C54.1464 28.3593 54.1103 28.143 54.0382 28.0348C53.966 27.9266 53.8037 27.8545 53.5512 27.8545H53.3888L53.0822 27.8906V27.6382L53.6955 27.4759L54.3809 27.2956L54.9761 27.1153L55.3729 26.9711L55.409 27.7824V28.6658L55.3909 29.5673V35.7151C55.3909 36.0396 55.409 36.274 55.4991 36.4002C55.5713 36.5264 55.7877 36.5985 56.1485 36.5985H56.4731C56.4731 36.5805 56.4731 36.8329 56.4731 36.8329L55.3729 37.2115L54.1825 37.6622L54.1283 36.6706C53.8398 36.9771 53.6053 37.1935 53.3888 37.3197C53.0281 37.5541 52.5952 37.6622 52.1082 37.6622C51.2605 37.6622 50.557 37.3377 50.034 36.6706C49.5109 36.0036 49.2404 35.2464 49.2404 34.381C49.2404 33.5156 49.565 32.3617 50.1963 31.5865C50.8276 30.8113 51.6212 30.4146 52.5411 30.4146C53.461 30.4146 53.2445 30.4867 53.5512 30.649M53.7856 36.4903C54.0201 36.256 54.1464 36.0396 54.1464 35.8413V32.6141C54.1464 31.9651 53.966 31.4964 53.6233 31.244C53.2806 30.9735 52.9379 30.8293 52.6133 30.8293C51.982 30.8293 51.495 31.1178 51.1342 31.6766C50.7735 32.2355 50.6112 32.9206 50.6112 33.75C50.6112 34.5793 50.7915 35.2824 51.1703 35.9134C51.5491 36.5444 52.1082 36.869 52.8477 36.869C53.5872 36.869 53.5512 36.7608 53.8037 36.5264M61.0545 33.3353C60.4773 33.5336 59.9903 33.7319 59.6296 33.9663C58.9081 34.417 58.5474 34.9218 58.5474 35.4807C58.5474 36.0396 58.6917 36.274 58.9983 36.4903C59.1967 36.6346 59.4131 36.7067 59.6476 36.7067C59.8821 36.7067 60.2969 36.6166 60.6036 36.4363C60.9102 36.256 61.0545 36.0216 61.0545 35.7331V33.3533V33.3353ZM58.2949 34.1827C58.7638 33.8762 59.6837 33.4795 61.0545 32.9567V32.3077C61.0545 31.8028 61.0004 31.4423 60.9102 31.244C60.7479 30.9014 60.3871 30.7391 59.846 30.7391C59.3049 30.7391 59.341 30.8113 59.1065 30.9375C58.872 31.0817 58.7638 31.262 58.7638 31.4964L58.7999 31.8028L58.836 32.0733C58.836 32.3617 58.7458 32.542 58.5654 32.6682C58.4572 32.7403 58.3309 32.7584 58.1866 32.7584C57.9522 32.7584 57.7898 32.6863 57.6636 32.542C57.5373 32.3978 57.4832 32.2175 57.4832 32.0372C57.4832 31.6766 57.6996 31.3161 58.1325 30.9375C58.5654 30.5589 59.2147 30.3605 60.0444 30.3605C60.8741 30.3605 61.6858 30.6851 62.0285 31.3161C62.2088 31.6586 62.299 32.1634 62.299 32.8305V35.8593C62.299 36.1478 62.3171 36.3461 62.3531 36.4543C62.4253 36.6526 62.5515 36.7428 62.768 36.7428C62.9844 36.7428 62.9844 36.7428 63.0566 36.6887C63.1287 36.6526 63.255 36.5625 63.4534 36.4363V36.8329C63.2911 37.0312 63.1107 37.1935 62.9303 37.3197C62.6417 37.518 62.3712 37.6081 62.0646 37.6081C61.7579 37.6081 61.4693 37.5 61.325 37.2836C61.1807 37.0673 61.0906 36.7968 61.0725 36.4903C60.6938 36.8149 60.3691 37.0673 60.0985 37.2295C59.6476 37.5 59.2147 37.6442 58.7999 37.6442C58.385 37.6442 57.9882 37.5 57.6816 37.1935C57.3569 36.887 57.2126 36.5084 57.2126 36.0396C57.2126 35.3185 57.5734 34.7055 58.3129 34.2187M63.76 37.3016C64.1207 37.2476 64.3733 37.1754 64.4995 37.0312C64.6438 36.887 64.716 36.5985 64.716 36.1298V32.3077C64.716 31.9831 64.6799 31.7668 64.6258 31.6226C64.5356 31.4242 64.3372 31.3341 64.0306 31.3341H63.8863L63.7059 31.3702V31.0997L65.1669 30.631L65.8703 30.3966L65.9425 30.5408V31.6406C66.4114 31.2079 66.7722 30.9194 67.0247 30.7572C67.4215 30.5048 67.8183 30.3966 68.2512 30.3966C68.5939 30.3966 68.9005 30.4867 69.1891 30.6851C69.7302 31.0637 70.0008 31.7488 70.0008 32.7223V36.2379C70.0008 36.5985 70.0729 36.869 70.2172 37.0132C70.3615 37.1754 70.614 37.2656 70.9567 37.2656V37.4819H67.7462V37.2656C68.1069 37.2115 68.3774 37.1214 68.5217 36.9591C68.666 36.7968 68.7382 36.4723 68.7382 35.9495V32.7403C68.7382 32.3077 68.666 31.9471 68.5037 31.6766C68.3414 31.3882 68.0528 31.244 67.6199 31.244C67.187 31.244 67.0247 31.3521 66.7181 31.5504C66.5557 31.6586 66.3212 31.8569 66.0507 32.1274V36.3461C66.0507 36.7067 66.1228 36.9591 66.2852 37.0853C66.4475 37.2115 66.7 37.2656 67.0427 37.2836V37.5H63.742V37.2836L63.76 37.3016ZM76.6563 30.9014C77.1073 31.2259 77.3417 31.5685 77.3417 31.9651C77.3417 32.3617 77.2876 32.2896 77.1614 32.4339C77.0532 32.5781 76.8728 32.6502 76.6203 32.6502C76.3678 32.6502 76.2956 32.5961 76.1513 32.4699C76.0251 32.3437 75.9168 32.1815 75.8627 31.9471L75.7725 31.5865C75.7004 31.3161 75.5922 31.1358 75.4298 31.0276C75.2675 30.9194 75.0511 30.8653 74.7805 30.8653C74.2033 30.8653 73.7163 31.1178 73.3195 31.6226C72.9227 32.1274 72.7243 32.7764 72.7243 33.6057C72.7243 34.4351 72.9408 35.048 73.3736 35.643C73.8065 36.2379 74.4017 36.5444 75.1413 36.5444C75.8808 36.5444 76.1333 36.3822 76.5301 36.0396C76.7646 35.8413 77.0171 35.5348 77.3057 35.1021L77.5221 35.2283C77.2335 35.8233 76.9269 36.3101 76.6203 36.6526C76.007 37.3197 75.3036 37.6622 74.51 37.6622C73.7163 37.6622 73.0309 37.3557 72.4357 36.7428C71.8405 36.1298 71.5339 35.2824 71.5339 34.2187C71.5339 33.155 71.8586 32.2896 72.5259 31.5324C73.1933 30.7752 74.023 30.4146 75.015 30.4146C75.6463 30.4146 76.1874 30.5769 76.6383 30.9014M78.3518 37.3016C78.8929 37.2476 79.2356 37.1574 79.3619 37.0312C79.5062 36.887 79.5783 36.5264 79.5783 35.9495V32.3617C79.5783 32.0372 79.5603 31.8028 79.5062 31.6766C79.434 31.4783 79.2717 31.3702 79.0372 31.3702H78.8749L78.424 31.5144V31.28L78.7486 31.1718C79.6324 30.8834 80.2457 30.667 80.5884 30.5228C80.7327 30.4687 80.8229 30.4327 80.8589 30.4327V30.5408V35.9495C80.8589 36.5264 80.9311 36.887 81.0573 37.0312C81.2016 37.1754 81.5083 37.2656 81.9953 37.3016V37.518H78.3338V37.3016H78.3518ZM82.6626 37.3016C83.1316 37.2476 83.4382 37.1574 83.6186 37.0312C83.7809 36.887 83.8711 36.5985 83.8711 36.1839V28.8281C83.8711 28.5036 83.835 28.2692 83.7809 28.143C83.6727 27.9266 83.4743 27.8185 83.1676 27.8185H82.9332C82.9332 27.8365 82.6265 27.9086 82.6265 27.9086V27.6562C83.3119 27.4759 84.1236 27.2415 85.0796 26.9351L85.1517 27.1694V36.2019C85.1517 36.6346 85.2238 36.923 85.3862 37.0492C85.5305 37.1754 85.8551 37.2476 86.3241 37.2836V37.5H82.6807V37.2836L82.6626 37.3016ZM86.9373 37.3016C87.4784 37.2476 87.8211 37.1574 87.9474 37.0312C88.0917 36.887 88.1638 36.5264 88.1638 35.9495V32.3617C88.1638 32.0372 88.1458 31.8028 88.0917 31.6766C88.0196 31.4783 87.8572 31.3702 87.6227 31.3702H87.4604L87.0095 31.5144V31.28L87.3342 31.1718C88.218 30.8834 88.8312 30.667 89.1739 30.5228C89.3182 30.4687 89.4084 30.4327 89.4445 30.4327V30.5408V35.9495C89.4445 36.5264 89.5166 36.887 89.6429 37.0312C89.7872 37.1754 90.0938 37.2656 90.5808 37.3016V37.518H86.9193V37.3016H86.9373ZM90.9415 37.3016C91.4285 37.2656 91.7351 37.1935 91.8975 37.0673C92.0598 36.9411 92.1319 36.6706 92.1319 36.256V28.7019C92.1319 28.3413 92.0778 28.125 91.9516 28.0168C91.8253 27.9086 91.663 27.8726 91.4285 27.8726H91.176L90.9415 27.9086V27.6923L91.6269 27.512C92.15 27.3678 92.5829 27.2416 92.9436 27.1334C93.16 27.0613 93.2863 27.0252 93.3224 27.0252L93.3945 33.4615L95.4868 31.6226C95.6311 31.4783 95.7393 31.3702 95.7934 31.298C95.8475 31.2259 95.8836 31.1538 95.8836 31.0817C95.8836 30.9735 95.8295 30.9014 95.7032 30.8653C95.595 30.8293 95.3966 30.8113 95.108 30.7932V30.5769H98.2464V30.7932C97.6873 30.8293 97.2364 30.9375 96.8937 31.1358C96.551 31.3161 95.9016 31.8569 94.9277 32.7403L94.4767 33.155L95.8656 34.9579C96.587 35.8774 97.1101 36.4903 97.4709 36.7968C97.8316 37.1033 98.2104 37.2656 98.6252 37.3016V37.5H95.2704V37.2836H95.5409C95.6311 37.2656 95.7032 37.2476 95.7754 37.2115C95.8475 37.1754 95.8836 37.1394 95.8836 37.0673C95.8836 37.0132 95.8836 36.9591 95.8475 36.923L95.7393 36.7608L93.3945 33.6778V36.4723C93.3945 36.8149 93.5208 37.0492 93.7733 37.1574C93.9176 37.2295 94.1882 37.2656 94.5489 37.2656V37.5H90.9415V37.2836V37.3016Z" fill="#010101"/>
<path d="M19.7141 21.6529C19.8584 21.8512 20.3454 22.9509 21.7162 22.4101C20.3995 22.8788 19.9125 21.7971 19.8223 21.5447C21.0849 21.0399 21.6441 22.2118 21.7162 22.4101C20.165 23.1132 19.7141 21.6529 19.7141 21.6529ZM20.3815 19.4353C19.0648 20.0844 19.5518 21.2021 19.678 21.4365C19.6059 21.4365 18.8303 20.1204 20.3815 19.4353C20.4717 19.6336 20.9767 20.8416 19.7502 21.4365C19.6239 21.2021 19.1369 20.1024 20.3815 19.4353ZM17.712 22.8608C17.9104 23.0771 18.668 24.3392 20.2372 23.4738C18.7221 24.231 17.9645 23.005 17.8202 22.7166C19.2632 21.9233 20.1109 23.2574 20.2372 23.4738C18.4876 24.5375 17.712 22.8608 17.712 22.8608ZM18.181 20.1024C16.702 21.0759 17.4415 22.338 17.6399 22.6084C17.5497 22.6084 16.4134 21.1481 18.181 20.1024C18.3253 20.3187 19.1009 21.707 17.7301 22.5904C17.5497 22.3199 16.8102 21.094 18.181 20.1024ZM18.6499 24.844C16.7741 26.3223 15.6197 24.4473 15.6197 24.4473C15.8723 24.6637 16.9364 26.0159 18.6139 24.8079C16.9725 25.9077 15.9264 24.5735 15.7099 24.2671C17.2611 23.1312 18.4155 24.5735 18.6139 24.8079V24.844H18.6499ZM15.7821 21.1841C14.1948 22.5183 15.259 23.8704 15.5115 24.1589C15.4033 24.1589 13.8882 22.6445 15.7821 21.1841C15.9805 21.4185 17.0807 22.8969 15.6017 24.1228C15.3492 23.8344 14.3211 22.5183 15.7821 21.1841ZM17.0807 26.5207C15.1147 28.4317 13.5816 26.4305 13.5816 26.4305C13.9063 26.6469 15.277 28.0531 17.0447 26.4846C15.2951 27.9269 13.9604 26.5387 13.6718 26.2142C15.2951 24.7358 16.7921 26.2142 17.0447 26.4846L17.0807 26.5207ZM13.3291 22.6625C13.6177 22.9509 15.0426 24.5014 13.5094 26.0699C13.1848 25.7815 11.8501 24.3933 13.3651 22.6985C11.7238 24.4113 13.0766 25.8356 13.4193 26.124C13.311 26.1601 11.345 24.5555 13.3471 22.6625M15.2951 28.2154C13.3651 30.469 11.5254 28.4497 11.5254 28.4497C11.8861 28.6661 13.5094 30.0543 15.259 28.1793C13.5094 29.8921 11.9402 28.5399 11.6156 28.1973C13.2389 26.4666 14.9885 27.9089 15.259 28.1793L15.2951 28.2154ZM10.9121 24.3933C11.2368 24.6637 12.9323 26.1961 11.4352 28.0531C11.0564 27.7647 9.48723 26.4125 10.9482 24.4293C9.34293 26.4305 10.9482 27.8187 11.327 28.1252C11.2007 28.1613 8.94612 26.6288 10.9121 24.3933ZM14.1227 30.487C12.0485 33.4798 9.55937 31.2622 9.55937 31.2622C10.0283 31.4786 12.1747 32.957 14.0686 30.4509C12.1567 32.7586 10.0644 31.3163 9.63152 30.9558C11.3811 28.63 13.7078 30.1805 14.0686 30.4509L14.1227 30.487ZM8.27876 26.4125C8.71164 26.7009 10.9662 28.3596 9.37901 30.7935C8.89201 30.505 6.79974 29.0267 8.33287 26.4485C6.63741 29.0988 8.74772 30.5952 9.25275 30.9017C9.10845 30.9738 6.16845 29.3872 8.27876 26.4125ZM12.5896 32.9389C10.858 36.5447 7.75569 34.5615 7.75569 34.5615C8.31483 34.7058 10.8941 35.9497 12.5174 32.9029C10.84 35.7514 8.31483 34.5255 7.77373 34.219C9.27078 31.3884 12.0665 32.6865 12.5174 32.9029L12.5715 32.9389H12.5896ZM5.53716 29.4954C6.06023 29.7298 8.80183 31.1541 7.50317 34.0747C6.926 33.8404 4.40084 32.5964 5.60931 29.5315C4.22047 32.7046 6.7817 33.9666 7.37692 34.2009C7.23262 34.3091 3.75151 33.0832 5.53716 29.4954ZM11.7959 36.112C10.1546 40.7274 6.11434 38.7082 6.11434 38.7082C6.79974 38.8163 10.1185 40.0062 11.7238 36.0759C10.0464 39.7719 6.81777 38.6 6.0963 38.2755C7.55729 34.6336 11.1286 35.8416 11.7238 36.0759L11.7959 36.112ZM2.75949 32.8308C3.42685 33.0651 6.94403 34.4353 5.73556 38.1493C4.99605 37.9329 1.76746 36.761 2.84967 32.8488C1.55102 36.8872 4.85176 38.0952 5.60931 38.3296C5.44698 38.4738 1.06403 37.4281 2.75949 32.8308ZM11.4172 39.6817C10.6777 45.1805 5.73556 43.9005 5.73556 43.9005C6.52919 43.8644 10.4612 44.3872 11.3089 39.6637C10.3169 44.1348 6.45704 43.594 5.60931 43.4317C6.36685 39.0507 10.6055 39.5555 11.3089 39.6637H11.3991L11.4172 39.6817ZM0.649178 38.1673C1.4428 38.2574 5.66342 38.9425 5.19446 43.3596C4.32869 43.2875 0.46881 42.7466 0.757399 38.1673C0.270405 42.9449 4.20243 43.5038 5.10428 43.5759C4.95998 43.7743 -0.144442 43.6481 0.649178 38.1493M43.0538 43.7202H37.6066C34.1436 43.3776 32.1776 41.1961 31.2757 38.9065C30.8789 37.8969 19.0287 9.62763 19.0287 9.62763C19.0107 9.62763 16.9364 14.4954 14.1227 21.2382C12.7519 21.8151 11.3991 22.7887 10.0644 24.1409L20.0929 0.577148H21.3374L37.3 36.8872C38.3642 39.3031 39.2119 40.7995 39.8432 41.3945C40.4925 41.9534 41.5567 42.35 43.0718 42.5483V43.7021L43.0538 43.7202ZM20.7422 21.112C20.9767 21.1661 22.095 21.6348 22.7263 20.3007C22.0769 21.5447 20.9767 21.0759 20.7422 20.9678C21.3194 19.7418 22.5279 20.2286 22.7263 20.3007C22.0769 21.8692 20.7422 21.112 20.7422 21.112Z" fill="#05733B"/>
<path d="M45.2906 21.238C45.471 21.1118 45.6694 20.9135 45.9039 20.625V17.3798C45.3087 17.5241 44.7856 17.7585 44.3347 18.0649C43.5771 18.5878 43.1983 19.2729 43.1983 20.0842C43.1983 20.8955 43.3066 20.9315 43.523 21.1839C43.7395 21.4363 43.992 21.5445 44.2806 21.5445C44.5691 21.5445 44.984 21.4363 45.2906 21.22M41.4127 18.3895C42.3687 17.7945 43.8837 17.2176 45.9399 16.6226V15C45.9399 14.333 45.7957 13.8642 45.5251 13.5397C45.2545 13.2152 44.7495 13.071 44.0461 13.071C43.6493 13.071 43.3246 13.1431 43.0541 13.3053C42.8015 13.4496 42.6753 13.6298 42.6753 13.8642C42.6753 14.0986 42.6753 14.0265 42.7114 14.0806L42.9639 14.4231C43.0721 14.5493 43.1442 14.6755 43.1983 14.8378C43.2705 14.982 43.2885 15.1443 43.2885 15.3065C43.2885 15.7212 43.1442 16.0457 42.8737 16.2801C42.6031 16.4964 42.2785 16.6226 41.8997 16.6226C41.5209 16.6226 41.1061 16.4964 40.7995 16.244C40.5109 15.9916 40.3485 15.631 40.3485 15.1443C40.3485 14.2969 40.7453 13.6118 41.557 13.125C42.3687 12.6383 43.3426 12.3678 44.515 12.3678C45.6874 12.3678 46.8238 12.6022 47.6715 13.089C48.5192 13.5758 48.9341 14.4772 48.9341 15.7933V21.1659C48.9341 21.3282 48.9701 21.4544 49.0603 21.5806C49.1505 21.6887 49.2407 21.7428 49.3489 21.7428C49.4571 21.7428 49.5112 21.7428 49.5834 21.7068C49.6555 21.6707 49.7638 21.5806 49.9081 21.4363L50.2508 21.9051C49.8179 22.4099 49.3309 22.7705 48.8078 22.9688C48.4831 23.095 48.1224 23.1671 47.7617 23.1671C47.0943 23.1671 46.6253 22.9688 46.3187 22.5902C46.1384 22.3738 46.0121 22.0493 45.9399 21.6166C45.3267 22.2296 44.6233 22.6623 43.8657 22.9147C43.3968 23.077 42.9278 23.1491 42.4769 23.1491C42.026 23.1491 41.3045 22.9508 40.7814 22.5722C40.2583 22.1755 39.9878 21.5806 39.9878 20.7693C39.9878 19.958 40.4748 18.9844 41.4307 18.3895M50.8279 22.3017C51.2608 22.2476 51.5494 22.1575 51.7117 21.9952C51.8741 21.851 51.9643 21.5445 51.9823 21.1118V20.4628C52.0003 20.4628 52.0003 14.4231 52.0003 14.4231C52.0003 13.9544 51.9282 13.6479 51.7658 13.4856C51.6035 13.3234 51.2969 13.2152 50.8279 13.1431V12.6022H55.0486V14.351C55.5175 13.738 55.9865 13.2512 56.4554 12.8907C56.9244 12.5301 57.4474 12.3498 58.0607 12.3498C58.674 12.3498 58.9265 12.494 59.2872 12.8005C59.6479 13.089 59.8463 13.5217 59.8463 14.0806C59.8463 14.6395 59.7201 14.8738 59.4495 15.1623C59.197 15.4508 58.8724 15.577 58.4575 15.577C58.0427 15.577 57.5737 15.3606 57.231 14.9099C56.8883 14.4772 56.6538 14.2428 56.5095 14.2428C56.2209 14.2428 55.9143 14.4231 55.6077 14.8017C55.3191 15.1623 55.1568 15.6851 55.1568 16.3702V20.571C55.1568 21.3101 55.265 21.7789 55.4634 21.9592C55.6798 22.1395 56.1127 22.2657 56.744 22.3198V22.8606H50.8279V22.3198V22.3017ZM61.614 9.05052C61.9567 8.70797 62.3715 8.54571 62.8405 8.54571C63.3094 8.54571 63.7062 8.70797 64.0489 9.05052C64.3916 9.37504 64.554 9.7897 64.554 10.2585C64.554 10.7272 64.3916 11.1419 64.0489 11.4844C63.7062 11.827 63.3094 11.9892 62.8405 11.9892C62.3715 11.9892 61.9567 11.827 61.614 11.4844C61.2893 11.1419 61.1089 10.7272 61.1089 10.2585C61.1089 9.7897 61.2713 9.37504 61.614 9.05052ZM60.1349 22.3017C60.5317 22.2296 60.8023 22.1395 60.9466 22.0133C61.163 21.8149 61.2713 21.4724 61.2713 20.9676V14.4411C61.2713 13.9904 61.1991 13.6839 61.0368 13.5217C60.8925 13.3594 60.5859 13.2332 60.1349 13.1611V12.6202H64.3916V21.0577C64.3916 21.5445 64.4638 21.851 64.6081 21.9952C64.7524 22.1395 65.0229 22.2476 65.4197 22.3198V22.8606H60.1169V22.3198L60.1349 22.3017ZM65.9608 22.3017C66.4118 22.2657 66.7364 22.1575 66.9348 21.9952C67.1332 21.833 67.2414 21.4904 67.2414 20.9496V13.72H65.9608V12.7464H67.2414V11.9171C67.2414 10.8895 67.4038 10.0421 67.7284 9.37504C68.3417 8.13105 69.478 7.51807 71.1374 7.51807C72.0212 7.51807 72.7607 7.71638 73.374 8.13105C73.9872 8.52768 74.2938 9.05052 74.2938 9.71759C74.2938 10.3847 74.1676 10.4568 73.897 10.7092C73.6445 10.9616 73.3018 11.0878 72.8689 11.0878C72.4361 11.0878 72.2016 10.9796 71.9491 10.7452C71.6965 10.5109 71.5703 10.2404 71.5703 9.9159C71.5703 9.59138 71.6424 9.4111 71.8048 9.14066C71.9671 8.87023 72.0573 8.70797 72.0573 8.63586C72.0573 8.45557 71.9851 8.34739 71.8589 8.29331C71.7326 8.23922 71.5883 8.22119 71.444 8.22119C71.0833 8.22119 70.8127 8.32936 70.6143 8.52768C70.4159 8.74403 70.3257 9.19475 70.3257 9.87985V12.7464H72.2557V13.72H70.3257V20.5349C70.3257 21.3101 70.434 21.7789 70.6504 21.9411C70.8669 22.1214 71.3719 22.2296 72.1294 22.2837V22.8246H65.9608V22.2837V22.3017ZM75.5384 9.05052C75.8811 8.70797 76.2779 8.54571 76.7649 8.54571C77.2519 8.54571 77.6307 8.70797 77.9734 9.05052C78.3161 9.37504 78.4784 9.7897 78.4784 10.2585C78.4784 10.7272 78.3161 11.1419 77.9734 11.4844C77.6487 11.8089 77.2339 11.9892 76.7649 11.9892C76.2959 11.9892 75.8811 11.827 75.5384 11.4844C75.2137 11.1419 75.0334 10.7272 75.0334 10.2585C75.0334 9.7897 75.1957 9.37504 75.5384 9.05052ZM74.0594 22.3017C74.4562 22.2296 74.7267 22.1395 74.871 22.0133C75.0875 21.8149 75.1957 21.4724 75.1957 20.9676V14.4411C75.1957 13.9904 75.1235 13.6839 74.9612 13.5217C74.8169 13.3594 74.5103 13.2332 74.0594 13.1611V12.6202H78.3161V21.0577C78.3161 21.5445 78.3882 21.851 78.5325 21.9952C78.6768 22.1395 78.9474 22.2476 79.3442 22.3198V22.8606H74.0413V22.3198L74.0594 22.3017ZM79.2359 24.5734C79.5245 24.339 79.8853 24.2128 80.2821 24.2128C80.6789 24.2128 80.9314 24.321 81.1478 24.5193C81.3823 24.7356 81.4905 24.97 81.4905 25.2765L81.4364 25.7633C81.4364 25.8534 81.4725 25.9435 81.5447 26.0157C81.6168 26.0878 81.707 26.1419 81.8152 26.1419C82.1759 26.1419 82.5186 25.8534 82.8253 25.2585C83.0237 24.8979 83.2942 24.1948 83.673 23.131L81.0036 16.5505L80.4444 15.2524C80.264 14.8558 80.0837 14.4592 79.8853 14.0625C79.6869 13.6659 79.5245 13.4315 79.4163 13.3234C79.3081 13.2152 79.0916 13.1611 78.785 13.125V12.5842H84.3404V13.125C83.9977 13.125 83.7091 13.1791 83.4746 13.2512C83.2582 13.3234 83.1499 13.4856 83.1499 13.72L83.186 13.9183L83.3664 14.3871L85.1159 18.8582L86.7032 14.8558L86.8836 14.2969C86.9377 14.1347 86.9557 13.9904 86.9557 13.8642C86.9557 13.5577 86.8475 13.3594 86.6491 13.2873C86.4507 13.1972 86.144 13.1611 85.7472 13.1431V12.6022H89.1021V13.1431C88.8135 13.1611 88.579 13.2512 88.3806 13.3774C88.2002 13.5036 88.0199 13.8282 87.8215 14.351L84.5027 23.2032C83.8894 24.8438 83.3664 25.9435 82.9335 26.5385C82.5006 27.1154 81.8152 27.4219 80.8773 27.4219C79.9394 27.4219 79.6869 27.2416 79.3261 26.881C78.9654 26.5205 78.785 26.1419 78.785 25.7092C78.785 25.2765 78.9293 24.8258 79.2179 24.5914M91.032 13.756C91.9519 12.8005 93.0341 12.3318 94.3147 12.3318C95.5954 12.3318 95.7396 12.5301 96.3709 12.9087C97.0203 13.2873 97.5073 13.8282 97.85 14.4952C98.1025 15 98.2828 15.6671 98.3911 16.4964C98.4452 16.875 98.4632 17.1815 98.4632 17.3798H92.7996C92.8537 18.2633 92.998 19.0385 93.2325 19.6875C93.6654 20.9135 94.4229 21.5265 95.5232 21.5265C96.6234 21.5265 96.5333 21.3642 97.0022 21.0397C97.2908 20.8414 97.6335 20.5169 98.0484 20.0481L98.5534 20.3546C97.868 21.4904 97.0744 22.2657 96.1725 22.7164C95.5954 23.0048 94.9099 23.131 94.1524 23.131C93.0522 23.131 92.0421 22.6984 91.0861 21.833C90.1302 20.9676 89.6612 19.5974 89.6612 17.7044C89.6612 15.8113 90.1122 14.6755 91.014 13.738M95.7577 16.5685C95.7577 15.2524 95.6495 14.351 95.4511 13.8282C95.2707 13.3053 94.8919 13.0529 94.3147 13.0529C93.7376 13.0529 93.3407 13.3594 93.1243 13.9544C92.9079 14.5493 92.7996 15.4327 92.7636 16.5866H95.7396L95.7577 16.5685Z" fill="#010101"/>
</svg>
