<svg width="133" height="60" viewBox="0 0 133 60" fill="none" xmlns="http://www.w3.org/2000/svg">
<path d="M53.0288 49.7356C53.75 49.7115 54.2067 49.5673 54.423 49.351C54.6394 49.1106 54.7596 48.6298 54.7596 47.8846V41.4423H53.0528V40.7692H54.7596C54.7596 39.7115 54.9038 38.8221 55.1923 38.0769C55.7452 36.6827 56.7548 35.9856 58.2211 35.9856C58.8221 35.9856 59.3269 36.1058 59.8077 36.3461C60.2884 36.5865 60.5048 36.899 60.5048 37.2836C60.5048 37.6683 60.4327 37.6923 60.2644 37.8846C60.0961 38.0529 59.9038 38.149 59.6875 38.149C59.4711 38.149 59.3269 38.101 59.1827 37.9808C59.0384 37.8606 58.8702 37.6442 58.6778 37.3558L58.5096 37.0913C58.4134 36.9471 58.2932 36.8269 58.173 36.7308C58.0528 36.6346 57.8605 36.5865 57.6442 36.5865C57.1394 36.5865 56.7788 36.8269 56.6105 37.3317C56.5144 37.5961 56.4663 37.9567 56.4663 38.3894V40.7692H58.9903V41.4423H56.4903V47.8846C56.4903 48.6298 56.5865 49.1346 56.8028 49.351C57.0192 49.5673 57.548 49.6875 58.4134 49.7596V50.0481H53.0528V49.7596L53.0288 49.7356ZM61.4663 38.0048C61.6586 37.7885 61.923 37.6923 62.2115 37.6923C62.5 37.6923 62.7403 37.7885 62.9567 38.0048C63.173 38.1971 63.2692 38.4615 63.2692 38.75C63.2692 39.0385 63.173 39.2788 62.9567 39.4952C62.7644 39.6875 62.5 39.8077 62.2115 39.8077C61.923 39.8077 61.6586 39.7115 61.4663 39.4952C61.274 39.2788 61.1538 39.0385 61.1538 38.75C61.1538 38.4615 61.25 38.2211 61.4663 38.0048ZM59.8798 49.7356C60.6009 49.6635 61.0577 49.5433 61.2259 49.375C61.4182 49.1827 61.5144 48.7019 61.5144 47.9327V43.149C61.5144 42.7163 61.4903 42.4038 61.4182 42.2356C61.3221 41.9711 61.1057 41.8269 60.7932 41.8269H60.5769L59.9759 42.0192V41.7067L60.4086 41.5625C61.5865 41.1779 62.4038 40.8894 62.8605 40.6971C63.0528 40.625 63.173 40.5769 63.2211 40.5769V40.7211V47.9327C63.2211 48.7019 63.3173 49.1827 63.4855 49.375C63.6778 49.5673 64.0865 49.6875 64.7355 49.7356V50.024H59.8557V49.7356H59.8798ZM71.3942 40.8413C71.6586 40.9856 71.923 41.1779 72.1634 41.4183V38.2211C72.1634 37.8125 72.1153 37.524 72.0192 37.3798C71.923 37.2356 71.7067 37.1394 71.3702 37.1394H71.1538L70.7451 37.1875V36.851L71.5625 36.6346L72.4759 36.3942L73.2692 36.1538L73.798 35.9615L73.8461 37.0433V38.2211L73.8221 39.4231V47.6202C73.8221 48.0529 73.8461 48.3654 73.9663 48.5336C74.0625 48.7019 74.3509 48.7981 74.8317 48.7981H75.2644C75.2644 48.774 75.2644 49.1106 75.2644 49.1106L73.798 49.6154L72.2115 50.2163L72.1394 48.8942C71.7548 49.3029 71.4423 49.5913 71.1538 49.7596C70.673 50.0721 70.0961 50.2163 69.4471 50.2163C68.3173 50.2163 67.3798 49.7836 66.6827 48.8942C65.9855 48.0048 65.625 46.9952 65.625 45.8413C65.625 44.6875 66.0576 43.149 66.899 42.1154C67.7403 41.0817 68.798 40.5529 70.024 40.5529C71.25 40.5529 70.9615 40.649 71.3702 40.8654M71.6827 48.6538C71.9952 48.3413 72.1634 48.0529 72.1634 47.7885V43.4856C72.1634 42.6202 71.923 41.9952 71.4663 41.6586C71.0096 41.2981 70.5528 41.1058 70.1202 41.1058C69.2788 41.1058 68.6298 41.4904 68.149 42.2356C67.6682 42.9808 67.4519 43.8942 67.4519 45C67.4519 46.1058 67.6923 47.0433 68.1971 47.8846C68.7019 48.726 69.4471 49.1586 70.4327 49.1586C71.4182 49.1586 71.3701 49.0144 71.7067 48.7019M81.3702 44.4471C80.6009 44.7115 79.9519 44.976 79.4711 45.2885C78.5096 45.8894 78.0288 46.5625 78.0288 47.3077C78.0288 48.0529 78.2211 48.3654 78.6298 48.6538C78.8942 48.8461 79.1827 48.9423 79.4952 48.9423C79.8077 48.9423 80.3605 48.8221 80.7692 48.5817C81.1778 48.3413 81.3702 48.0288 81.3702 47.6442V44.4711V44.4471ZM77.6923 45.5769C78.3173 45.1683 79.5432 44.6394 81.3702 43.9423V43.0769C81.3702 42.4038 81.298 41.9231 81.1778 41.6586C80.9615 41.2019 80.4807 40.9856 79.7596 40.9856C79.0384 40.9856 79.0865 41.0817 78.774 41.25C78.4615 41.4423 78.3173 41.6827 78.3173 41.9952L78.3653 42.4038L78.4134 42.7644C78.4134 43.149 78.2932 43.3894 78.0528 43.5577C77.9086 43.6538 77.7403 43.6779 77.548 43.6779C77.2355 43.6779 77.0192 43.5817 76.8509 43.3894C76.6827 43.1971 76.6105 42.9567 76.6105 42.7163C76.6105 42.2356 76.899 41.7548 77.4759 41.25C78.0528 40.7452 78.9182 40.4808 80.024 40.4808C81.1298 40.4808 82.2115 40.9135 82.6682 41.7548C82.9086 42.2115 83.0288 42.8846 83.0288 43.774V47.8125C83.0288 48.1971 83.0528 48.4615 83.1009 48.6058C83.1971 48.8702 83.3653 48.9904 83.6538 48.9904C83.9423 48.9904 83.9423 48.9904 84.0384 48.9183C84.1346 48.8702 84.3028 48.75 84.5673 48.5817V49.1106C84.3509 49.375 84.1105 49.5913 83.8701 49.7596C83.4855 50.024 83.125 50.1442 82.7163 50.1442C82.3077 50.1442 81.923 50 81.7307 49.7115C81.5384 49.4231 81.4182 49.0625 81.3942 48.6538C80.8894 49.0865 80.4567 49.4231 80.0961 49.6394C79.4952 50 78.9182 50.1923 78.3653 50.1923C77.8125 50.1923 77.2836 50 76.875 49.5913C76.4423 49.1827 76.25 48.6779 76.25 48.0529C76.25 47.0913 76.7307 46.274 77.7163 45.625M84.9759 49.7356C85.4567 49.6635 85.7932 49.5673 85.9615 49.375C86.1538 49.1827 86.25 48.7981 86.25 48.1731V43.0769C86.25 42.6442 86.2019 42.3558 86.1298 42.1635C86.0096 41.899 85.7452 41.7788 85.3365 41.7788H85.1442L84.9038 41.8269V41.4663L86.8509 40.8413L87.7884 40.5288L87.8846 40.7211V42.1875C88.5096 41.6106 88.9903 41.226 89.3269 41.0096C89.8557 40.6731 90.3846 40.5288 90.9615 40.5288C91.4182 40.5288 91.8269 40.649 92.2115 40.9135C92.9327 41.4183 93.2932 42.3317 93.2932 43.6298V48.3173C93.2932 48.7981 93.3894 49.1586 93.5817 49.351C93.774 49.5673 94.1105 49.6875 94.5673 49.6875V49.976H90.2884V49.6875C90.7692 49.6154 91.1298 49.4952 91.3221 49.2788C91.5144 49.0625 91.6105 48.6298 91.6105 47.9327V43.6538C91.6105 43.0769 91.5144 42.5961 91.298 42.2356C91.0817 41.851 90.6971 41.6586 90.1201 41.6586C89.5432 41.6586 89.3269 41.8029 88.9182 42.0673C88.7019 42.2115 88.3894 42.476 88.0288 42.8365V48.4615C88.0288 48.9423 88.125 49.2788 88.3413 49.4471C88.5577 49.6154 88.8942 49.6875 89.3509 49.7115V50H84.9519V49.7115L84.9759 49.7356ZM102.163 41.2019C102.764 41.6346 103.077 42.0913 103.077 42.6202C103.077 43.149 103.005 43.0529 102.836 43.2452C102.692 43.4375 102.452 43.5336 102.115 43.5336C101.779 43.5336 101.683 43.4615 101.49 43.2933C101.322 43.125 101.178 42.9086 101.106 42.5961L100.986 42.1154C100.889 41.7548 100.745 41.5144 100.529 41.3702C100.312 41.226 100.024 41.1538 99.6634 41.1538C98.8942 41.1538 98.2451 41.4904 97.7163 42.1635C97.1875 42.8365 96.923 43.7019 96.923 44.8077C96.923 45.9135 97.2115 46.7308 97.7884 47.524C98.3653 48.3173 99.1586 48.726 100.144 48.726C101.13 48.726 101.466 48.5096 101.995 48.0529C102.308 47.7885 102.644 47.3798 103.029 46.8029L103.317 46.9711C102.933 47.7644 102.524 48.4135 102.115 48.8702C101.298 49.7596 100.361 50.2163 99.3028 50.2163C98.2452 50.2163 97.3317 49.8077 96.5384 48.9904C95.7452 48.1731 95.3365 47.0433 95.3365 45.625C95.3365 44.2067 95.7692 43.0529 96.6586 42.0433C97.548 41.0336 98.6538 40.5529 99.9759 40.5529C100.817 40.5529 101.538 40.7692 102.139 41.2019M104.423 49.7356C105.144 49.6635 105.601 49.5433 105.769 49.375C105.961 49.1827 106.058 48.7019 106.058 47.9327V43.149C106.058 42.7163 106.034 42.4038 105.961 42.2356C105.865 41.9711 105.649 41.8269 105.336 41.8269H105.12L104.519 42.0192V41.7067L104.952 41.5625C106.13 41.1779 106.947 40.8894 107.404 40.6971C107.596 40.625 107.716 40.5769 107.764 40.5769V40.7211V47.9327C107.764 48.7019 107.861 49.1827 108.029 49.375C108.221 49.5673 108.63 49.6875 109.279 49.7356V50.024H104.399V49.7356H104.423ZM110.168 49.7356C110.793 49.6635 111.202 49.5433 111.442 49.375C111.659 49.1827 111.779 48.7981 111.779 48.2452V38.4375C111.779 38.0048 111.731 37.6923 111.659 37.524C111.514 37.2356 111.25 37.0913 110.841 37.0913H110.529C110.529 37.1154 110.12 37.2115 110.12 37.2115V36.875C111.034 36.6346 112.115 36.3221 113.389 35.9135L113.486 36.226V48.2692C113.486 48.8461 113.582 49.2308 113.798 49.399C113.99 49.5673 114.423 49.6635 115.048 49.7115V50H110.192V49.7115L110.168 49.7356ZM115.865 49.7356C116.586 49.6635 117.043 49.5433 117.211 49.375C117.404 49.1827 117.5 48.7019 117.5 47.9327V43.149C117.5 42.7163 117.476 42.4038 117.404 42.2356C117.308 41.9711 117.091 41.8269 116.779 41.8269H116.562L115.961 42.0192V41.7067L116.394 41.5625C117.572 41.1779 118.389 40.8894 118.846 40.6971C119.038 40.625 119.159 40.5769 119.207 40.5769V40.7211V47.9327C119.207 48.7019 119.303 49.1827 119.471 49.375C119.663 49.5673 120.072 49.6875 120.721 49.7356V50.024H115.841V49.7356H115.865ZM121.202 49.7356C121.851 49.6875 122.26 49.5913 122.476 49.4231C122.692 49.2548 122.788 48.8942 122.788 48.3413V38.2692C122.788 37.7885 122.716 37.5 122.548 37.3558C122.38 37.2115 122.163 37.1635 121.851 37.1635H121.514L121.202 37.2115V36.9231L122.115 36.6827C122.812 36.4904 123.389 36.3221 123.87 36.1779C124.159 36.0817 124.327 36.0336 124.375 36.0336L124.471 44.6154L127.26 42.1635C127.452 41.9711 127.596 41.8269 127.668 41.7308C127.74 41.6346 127.788 41.5385 127.788 41.4423C127.788 41.2981 127.716 41.2019 127.548 41.1538C127.404 41.1058 127.139 41.0817 126.755 41.0577V40.7692H130.937V41.0577C130.192 41.1058 129.591 41.25 129.135 41.5144C128.678 41.7548 127.812 42.476 126.514 43.6538L125.913 44.2067L127.764 46.6106C128.726 47.8365 129.423 48.6538 129.904 49.0625C130.385 49.4711 130.889 49.6875 131.442 49.7356V50H126.971V49.7115H127.332C127.452 49.6875 127.548 49.6635 127.644 49.6154C127.74 49.5673 127.788 49.5192 127.788 49.4231C127.788 49.351 127.788 49.2788 127.74 49.2308L127.596 49.0144L124.471 44.9038V48.6298C124.471 49.0865 124.639 49.399 124.976 49.5433C125.168 49.6394 125.529 49.6875 126.01 49.6875V50H121.202V49.7115V49.7356Z" fill="white"/>
<path d="M26.2742 28.8702C26.4665 29.1346 27.1155 30.601 28.9424 29.8798C27.1876 30.5048 26.5386 29.0625 26.4184 28.726C28.1011 28.0529 28.8463 29.6154 28.9424 29.8798C26.8751 30.8173 26.2742 28.8702 26.2742 28.8702ZM27.1636 25.9135C25.4088 26.7788 26.0578 28.2692 26.2261 28.5817C26.1299 28.5817 25.0963 26.8269 27.1636 25.9135C27.2838 26.1779 27.9569 27.7885 26.3223 28.5817C26.154 28.2692 25.5049 26.8029 27.1636 25.9135ZM23.6059 30.4808C23.8703 30.7692 24.8799 32.4519 26.9713 31.2981C24.9521 32.3077 23.9424 30.6731 23.7501 30.2885C25.6732 29.2308 26.803 31.0096 26.9713 31.2981C24.6396 32.7163 23.6059 30.4808 23.6059 30.4808ZM24.2309 26.8029C22.2598 28.101 23.2453 29.7836 23.5098 30.1442C23.3896 30.1442 21.8751 28.1971 24.2309 26.8029C24.4232 27.0913 25.4569 28.9423 23.6299 30.1202C23.3896 29.7596 22.404 28.125 24.2309 26.8029ZM24.8559 33.125C22.3559 35.0961 20.8174 32.5962 20.8174 32.5962C21.154 32.8846 22.5723 34.6875 24.8078 33.0769C22.6203 34.5433 21.2261 32.7644 20.9376 32.3558C23.0049 30.8413 24.5434 32.7644 24.8078 33.0769V33.125H24.8559ZM21.0338 28.2452C18.9184 30.024 20.3367 31.8269 20.6732 32.2115C20.529 32.2115 18.5098 30.1923 21.0338 28.2452C21.2982 28.5577 22.7646 30.5288 20.7934 32.1635C20.4569 31.7788 19.0867 30.024 21.0338 28.2452ZM22.7646 35.3606C20.1444 37.9087 18.1011 35.2404 18.1011 35.2404C18.5338 35.5288 20.3607 37.4038 22.7165 35.3125C20.3848 37.2356 18.6059 35.3846 18.2213 34.9519C20.3848 32.9808 22.3799 34.9519 22.7165 35.3125L22.7646 35.3606ZM17.7646 30.2163C18.1492 30.601 20.0482 32.6683 18.0049 34.7596C17.5723 34.375 15.7934 32.524 17.8126 30.2644C15.6251 32.5481 17.428 34.4471 17.8848 34.8317C17.7405 34.8798 15.1203 32.7404 17.7886 30.2163M20.3848 37.6202C17.8126 40.625 15.3607 37.9327 15.3607 37.9327C15.8415 38.2211 18.0049 40.0721 20.3367 37.5721C18.0049 39.8558 15.9136 38.0529 15.4809 37.5961C17.6444 35.2885 19.9761 37.2115 20.3367 37.5721L20.3848 37.6202ZM14.5434 32.524C14.9761 32.8846 17.2357 34.9279 15.2405 37.4038C14.7357 37.0192 12.6444 35.2163 14.5915 32.5721C12.4521 35.2404 14.5915 37.0913 15.0963 37.5C14.928 37.5481 11.9232 35.5048 14.5434 32.524ZM18.8223 40.649C16.0578 44.6394 12.7405 41.6827 12.7405 41.6827C13.3655 41.9711 16.2261 43.9423 18.7501 40.601C16.2021 43.6779 13.4136 41.7548 12.8367 41.274C15.1684 38.1731 18.2694 40.2404 18.7501 40.601L18.8223 40.649ZM11.0338 35.2163C11.6107 35.601 14.6155 37.8125 12.5001 41.0577C11.8511 40.6731 9.06264 38.7019 11.1059 35.2644C8.84629 38.7981 11.6588 40.7933 12.3319 41.2019C12.1396 41.2981 8.22129 39.1827 11.0338 35.2163ZM16.779 43.9183C14.4713 48.726 10.3367 46.0817 10.3367 46.0817C11.0819 46.274 14.5194 47.9327 16.6828 43.8702C14.4473 47.6683 11.0819 46.0336 10.3607 45.625C12.3559 41.851 16.0819 43.5817 16.6828 43.8702L16.7549 43.9183H16.779ZM7.37994 39.3269C8.07706 39.6394 11.7309 41.5385 10.0001 45.4327C9.23091 45.1202 5.86552 43.4615 7.4761 39.375C5.62514 43.6058 9.0386 45.2885 9.83187 45.601C9.63956 45.7452 5.00014 44.1106 7.37994 39.3269ZM15.7213 48.149C13.5338 54.3029 8.14918 51.6106 8.14918 51.6106C9.06264 51.7548 13.4857 53.3413 15.6251 48.101C13.3896 53.0288 9.08667 51.4663 8.12514 51.0336C10.0723 46.1779 14.8319 47.7885 15.6251 48.101L15.7213 48.149ZM3.67802 43.774C4.56744 44.0865 9.25494 45.9135 7.64437 50.8654C6.65879 50.5769 2.35591 49.0144 3.79821 43.7981C2.06744 49.1827 6.46648 50.7933 7.4761 51.1058C7.25975 51.2981 1.41841 49.9038 3.67802 43.774ZM15.2165 52.9086C14.2309 60.2404 7.64437 58.5336 7.64437 58.5336C8.70206 58.4856 13.9424 59.1827 15.0723 52.8846C13.7501 58.8461 8.60591 58.125 7.4761 57.9086C8.48571 52.0673 14.1348 52.7404 15.0723 52.8846H15.1924L15.2165 52.9086ZM0.865521 50.8894C1.92321 51.0096 7.54821 51.9231 6.92321 57.8125C5.76937 57.7163 0.625137 56.9952 1.00975 50.8894C0.360714 57.2596 5.6011 58.0048 6.80302 58.101C6.61071 58.3654 -0.192171 58.1971 0.865521 50.8654M57.3799 58.2933H50.1203C45.5049 57.8365 42.8847 54.9279 41.6828 51.875C41.154 50.5288 25.3607 12.8365 25.3607 12.8365C25.3367 12.8365 22.5723 19.3269 18.8223 28.3173C16.9953 29.0865 15.1924 30.3846 13.4136 32.1875L26.779 0.769226H28.4376L49.7117 49.1827C51.1299 52.4038 52.2597 54.399 53.1011 55.1923C53.9665 55.9375 55.3848 56.4663 57.404 56.7308V58.2692L57.3799 58.2933ZM27.6444 28.149C27.9569 28.2211 29.4473 28.8461 30.2886 27.0673C29.4232 28.726 27.9569 28.101 27.6444 27.9567C28.4136 26.3221 30.0242 26.9711 30.2886 27.0673C29.4232 29.1586 27.6444 28.149 27.6444 28.149Z" fill="white"/>
<path d="M60.3608 28.3173C60.6012 28.149 60.8656 27.8846 61.1781 27.5V23.1731C60.3848 23.3654 59.6877 23.6779 59.0867 24.0865C58.0771 24.7837 57.5723 25.6971 57.5723 26.7789C57.5723 27.8606 57.7165 27.9087 58.005 28.2452C58.2935 28.5817 58.63 28.726 59.0146 28.726C59.3992 28.726 59.9521 28.5817 60.3608 28.2933M55.1925 24.5192C56.4665 23.726 58.4858 22.9567 61.2261 22.1635V20C61.2261 19.1106 61.0338 18.4856 60.6733 18.0529C60.3127 17.6202 59.6396 17.4279 58.7021 17.4279C58.1733 17.4279 57.7406 17.524 57.38 17.7404C57.0435 17.9327 56.8752 18.1731 56.8752 18.4856C56.8752 18.7981 56.8752 18.7019 56.9233 18.774L57.2598 19.2308C57.404 19.399 57.5002 19.5673 57.5723 19.7837C57.6685 19.976 57.6925 20.1923 57.6925 20.4087C57.6925 20.9615 57.5002 21.3942 57.1396 21.7067C56.779 21.9952 56.3463 22.1635 55.8415 22.1635C55.3367 22.1635 54.7838 21.9952 54.3752 21.6587C53.9906 21.3221 53.7742 20.8414 53.7742 20.1923C53.7742 19.0625 54.3031 18.149 55.3848 17.5C56.4665 16.851 57.7646 16.4904 59.3271 16.4904C60.8896 16.4904 62.404 16.8029 63.5338 17.4519C64.6636 18.101 65.2165 19.3029 65.2165 21.0577V28.2212C65.2165 28.4375 65.2646 28.6058 65.3848 28.774C65.505 28.9183 65.6252 28.9904 65.7694 28.9904C65.9137 28.9904 65.9858 28.9904 66.0819 28.9423C66.1781 28.8942 66.3223 28.774 66.5146 28.5817L66.9713 29.2067C66.3944 29.8798 65.7454 30.3606 65.0483 30.625C64.6156 30.7933 64.1348 30.8894 63.654 30.8894C62.7646 30.8894 62.1396 30.625 61.731 30.1202C61.4906 29.8317 61.3223 29.399 61.2261 28.8221C60.4088 29.6394 59.4713 30.2164 58.4617 30.5529C57.8367 30.7692 57.2117 30.8654 56.6108 30.8654C56.0098 30.8654 55.0483 30.601 54.3512 30.0962C53.654 29.5673 53.2935 28.774 53.2935 27.6923C53.2935 26.6106 53.9425 25.3125 55.2165 24.5192M67.7406 29.7356C68.3175 29.6635 68.7021 29.5433 68.9185 29.3269C69.1348 29.1346 69.255 28.726 69.279 28.149V27.2837C69.3031 27.2837 69.3031 19.2308 69.3031 19.2308C69.3031 18.6058 69.2069 18.1971 68.9906 17.9808C68.7742 17.7644 68.3656 17.6202 67.7406 17.524V16.8029H73.3656V19.1346C73.9906 18.3173 74.6156 17.6683 75.2406 17.1875C75.8656 16.7067 76.5627 16.4664 77.38 16.4664C78.1973 16.4664 78.5338 16.6587 79.0146 17.0673C79.4954 17.4519 79.7598 18.0289 79.7598 18.774C79.7598 19.5192 79.5915 19.8317 79.231 20.2164C78.8944 20.601 78.4617 20.7692 77.9088 20.7692C77.356 20.7692 76.731 20.4808 76.2742 19.8798C75.8175 19.3029 75.505 18.9904 75.3127 18.9904C74.9281 18.9904 74.5194 19.2308 74.1108 19.7356C73.7261 20.2164 73.5098 20.9135 73.5098 21.8269V27.4279C73.5098 28.4135 73.654 29.0385 73.9185 29.2789C74.2069 29.5192 74.7838 29.6875 75.6252 29.7596V30.4808H67.7406V29.7596V29.7356ZM82.1156 12.0673C82.5723 11.6106 83.1252 11.3942 83.7502 11.3942C84.3752 11.3942 84.904 11.6106 85.3608 12.0673C85.8175 12.5 86.0338 13.0529 86.0338 13.6779C86.0338 14.3029 85.8175 14.8558 85.3608 15.3125C84.904 15.7692 84.3752 15.9856 83.7502 15.9856C83.1252 15.9856 82.5723 15.7692 82.1156 15.3125C81.6829 14.8558 81.4425 14.3029 81.4425 13.6779C81.4425 13.0529 81.6588 12.5 82.1156 12.0673ZM80.1444 29.7356C80.6733 29.6394 81.0338 29.5192 81.2261 29.351C81.5146 29.0865 81.6588 28.6298 81.6588 27.9567V19.2548C81.6588 18.6539 81.5627 18.2452 81.3463 18.0289C81.154 17.8125 80.7454 17.6442 80.1444 17.5481V16.8269H85.8175V28.0769C85.8175 28.726 85.9137 29.1346 86.106 29.3269C86.2983 29.5192 86.6588 29.6635 87.1877 29.7596V30.4808H80.1204V29.7596L80.1444 29.7356ZM87.9088 29.7356C88.5098 29.6875 88.9425 29.5433 89.2069 29.3269C89.4713 29.1106 89.6156 28.6539 89.6156 27.9327V18.2933H87.9088V16.9952H89.6156V15.8894C89.6156 14.5192 89.8319 13.3894 90.2646 12.5C91.0819 10.8414 92.5963 10.024 94.8079 10.024C95.9858 10.024 96.9713 10.2885 97.7886 10.8414C98.606 11.3702 99.0146 12.0673 99.0146 12.9567C99.0146 13.8462 98.8463 13.9423 98.4858 14.2789C98.1492 14.6154 97.6925 14.7837 97.1156 14.7837C96.5386 14.7837 96.2261 14.6394 95.8896 14.3269C95.5531 14.0144 95.3848 13.6539 95.3848 13.2212C95.3848 12.7885 95.481 12.5481 95.6973 12.1875C95.9136 11.8269 96.0338 11.6106 96.0338 11.5144C96.0338 11.274 95.9377 11.1298 95.7694 11.0577C95.6011 10.9856 95.4088 10.9615 95.2165 10.9615C94.7358 10.9615 94.3752 11.1058 94.1108 11.3702C93.8463 11.6587 93.7261 12.2596 93.7261 13.1731V16.9952H96.2983V18.2933H93.7261V27.3798C93.7261 28.4135 93.8704 29.0385 94.1588 29.2548C94.4473 29.4952 95.1204 29.6394 96.13 29.7115V30.4327H87.9088V29.7115V29.7356ZM100.673 12.0673C101.13 11.6106 101.659 11.3942 102.308 11.3942C102.957 11.3942 103.462 11.6106 103.918 12.0673C104.375 12.5 104.592 13.0529 104.592 13.6779C104.592 14.3029 104.375 14.8558 103.918 15.3125C103.486 15.7452 102.933 15.9856 102.308 15.9856C101.683 15.9856 101.13 15.7692 100.673 15.3125C100.241 14.8558 100 14.3029 100 13.6779C100 13.0529 100.217 12.5 100.673 12.0673ZM98.7021 29.7356C99.231 29.6394 99.5915 29.5192 99.7838 29.351C100.072 29.0865 100.217 28.6298 100.217 27.9567V19.2548C100.217 18.6539 100.12 18.2452 99.904 18.0289C99.7117 17.8125 99.3031 17.6442 98.7021 17.5481V16.8269H104.375V28.0769C104.375 28.726 104.471 29.1346 104.664 29.3269C104.856 29.5192 105.217 29.6635 105.745 29.7596V30.4808H98.6781V29.7596L98.7021 29.7356ZM105.601 32.7644C105.986 32.4519 106.467 32.2837 106.995 32.2837C107.524 32.2837 107.861 32.4279 108.149 32.6923C108.462 32.9808 108.606 33.2933 108.606 33.7019L108.534 34.351C108.534 34.4712 108.582 34.5914 108.678 34.6875C108.774 34.7837 108.894 34.8558 109.039 34.8558C109.519 34.8558 109.976 34.4712 110.385 33.6779C110.649 33.1971 111.01 32.2596 111.515 30.8414L107.957 22.0673L107.212 20.3365C106.971 19.8077 106.731 19.2789 106.467 18.75C106.202 18.2212 105.986 17.9087 105.842 17.7644C105.697 17.6202 105.409 17.5481 105 17.5V16.7789H112.404V17.5C111.947 17.5 111.563 17.5721 111.25 17.6683C110.962 17.7644 110.817 17.9808 110.817 18.2933L110.866 18.5577L111.106 19.1827L113.438 25.1442L115.553 19.8077L115.793 19.0625C115.866 18.8462 115.89 18.6539 115.89 18.4856C115.89 18.0769 115.745 17.8125 115.481 17.7164C115.217 17.5962 114.808 17.5481 114.279 17.524V16.8029H118.75V17.524C118.366 17.5481 118.053 17.6683 117.789 17.8365C117.548 18.0048 117.308 18.4375 117.043 19.1346L112.62 30.9375C111.803 33.125 111.106 34.5914 110.529 35.3846C109.952 36.1539 109.039 36.5625 107.789 36.5625C106.539 36.5625 106.202 36.3221 105.721 35.8414C105.241 35.3606 105 34.8558 105 34.2789C105 33.7019 105.192 33.101 105.577 32.7885M121.322 18.3414C122.548 17.0673 123.991 16.4423 125.697 16.4423C127.404 16.4423 127.596 16.7067 128.438 17.2115C129.303 17.7164 129.952 18.4375 130.409 19.3269C130.745 20 130.986 20.8894 131.13 21.9952C131.202 22.5 131.226 22.9087 131.226 23.1731H123.678C123.75 24.351 123.942 25.3846 124.255 26.25C124.832 27.8846 125.842 28.7019 127.308 28.7019C128.774 28.7019 128.654 28.4856 129.279 28.0529C129.664 27.7885 130.12 27.3558 130.673 26.7308L131.346 27.1394C130.433 28.6539 129.375 29.6875 128.173 30.2885C127.404 30.6731 126.491 30.8414 125.481 30.8414C124.015 30.8414 122.668 30.2644 121.394 29.1106C120.12 27.9567 119.495 26.1298 119.495 23.6058C119.495 21.0817 120.096 19.5673 121.298 18.3173M127.62 22.0914C127.62 20.3365 127.476 19.1346 127.212 18.4375C126.971 17.7404 126.467 17.4039 125.697 17.4039C124.928 17.4039 124.399 17.8125 124.111 18.6058C123.822 19.399 123.678 20.5769 123.63 22.1154H127.596L127.62 22.0914Z" fill="white"/>
</svg>
